<svg width="235" height="77" viewBox="0 0 235 77" fill="none" xmlns="http://www.w3.org/2000/svg">
<path d="M235 77H0V-4.96705e-07H235V77Z" fill="#C80000"/>
<path d="M57.5287 34.2569C57.6356 33.7525 57.4654 33.2307 57.0889 32.8796C51.969 28.1182 46.1873 23.9119 39.8654 20.3495C39.4251 20.1022 38.8861 20.1022 38.4463 20.3495C32.1244 23.9119 26.3427 28.1182 21.2228 32.8796C20.8458 33.2307 20.6755 33.7525 20.7825 34.2569C22.3533 41.6268 24.5575 48.4492 27.3477 54.5836C27.5583 55.0469 27.992 55.3718 28.4962 55.4325C35.5781 56.2869 42.7342 56.2869 49.815 55.4325C50.3197 55.3718 50.7534 55.0469 50.9646 54.5836C53.7537 48.4503 55.9573 41.6268 57.5287 34.2569ZM60.7455 32.9512C60.7455 33.0464 60.7363 33.1421 60.7172 33.2368C59.8409 37.6448 58.7459 41.8746 57.4425 45.896C56.139 49.9173 54.625 53.7308 52.9118 57.3092C52.806 57.5296 52.6488 57.7172 52.4568 57.8572C52.2658 57.9973 52.0388 58.0902 51.7977 58.1247C49.7004 58.4152 47.596 58.6334 45.4878 58.7794C43.3791 58.9249 41.2676 58.9977 39.155 58.9977C34.9321 58.9977 30.708 58.7067 26.514 58.1247C26.2718 58.0902 26.0459 57.9973 25.8549 57.8572C25.6629 57.7172 25.5052 57.5296 25.3994 57.3092C23.6862 53.7308 22.1732 49.9173 20.8698 45.896C19.5658 41.8746 18.4708 37.6448 17.5945 33.2368C17.5754 33.1421 17.5662 33.0464 17.5662 32.9512C17.5662 32.5585 17.7249 32.1778 18.013 31.8983C20.9953 29.0157 24.2072 26.3213 27.6232 23.8326C31.0398 21.3439 34.6615 19.0608 38.4627 17.002C38.6787 16.8849 38.9172 16.8264 39.155 16.8264C39.394 16.8264 39.6319 16.8849 39.849 17.002C43.6502 19.0608 47.2708 21.3439 50.6874 23.8326C54.1039 26.3213 57.3148 29.0157 60.2987 31.8983C60.5868 32.1778 60.7455 32.5585 60.7455 32.9512Z" fill="white"/>
<path d="M57.0891 32.8799C57.465 33.2305 57.6357 33.7523 57.5288 34.2571C55.9575 41.6271 53.7538 48.4501 50.9641 54.5839C50.7535 55.0466 50.3198 55.3721 49.8151 55.4328C42.7338 56.2871 35.5777 56.2871 28.4963 55.4328C27.9922 55.3721 27.5584 55.0466 27.3473 54.5839C24.5576 48.4495 22.3534 41.6271 20.7826 34.2571C20.6757 33.7523 20.8453 33.2305 21.2229 32.8799C26.3423 28.1184 32.1246 23.9116 38.4464 20.3492C38.8862 20.1019 39.4252 20.1019 39.8655 20.3492C46.1874 23.9116 51.9686 28.1184 57.0891 32.8799Z" fill="#C90C0F"/>
<path d="M46.3827 36.6543H42.0512V32.3114C42.0512 31.504 41.3975 30.8493 40.5928 30.8493H37.7191C36.9138 30.8493 36.2607 31.504 36.2607 32.3114V36.6543H31.9286C31.1233 36.6543 30.4702 37.3085 30.4702 38.1164V40.9968C30.4702 41.8047 31.1233 42.4589 31.9286 42.4589H36.2607V46.8018C36.2607 47.6092 36.9138 48.2639 37.7191 48.2639H40.5928C41.3975 48.2639 42.0512 47.6092 42.0512 46.8018V42.4589H46.3827C47.1885 42.4589 47.8411 41.8047 47.8411 40.9968V38.1164C47.8411 37.3085 47.1885 36.6543 46.3827 36.6543Z" fill="white"/>
<path d="M74.8675 41.6848H81.8004L79.1886 34.7338C79.0462 34.369 78.7854 34.1869 78.4052 34.1869C78.0254 34.1869 77.7559 34.369 77.5982 34.7338L74.8675 41.6848ZM82.7978 44.3508H73.8226L72.5165 47.6594H69.43L75.0573 33.3773C75.3263 32.6154 75.7421 32.0799 76.304 31.7709C76.8655 31.4613 77.5742 31.3065 78.4286 31.3065C79.2677 31.3065 79.9645 31.4613 80.5183 31.7709C81.072 32.0799 81.484 32.6154 81.753 33.3773L87.1664 47.6594H84.0565L82.7978 44.3508Z" fill="white"/>
<path d="M102.006 31.5923C102.908 31.5923 103.359 32.0288 103.359 32.9018V47.6597H100.534V34.6866C100.534 34.4962 100.439 34.401 100.249 34.401H92.6508C92.4452 34.401 92.3426 34.4962 92.3426 34.6866V47.6597H89.5404V32.9018C89.5404 32.0288 89.9839 31.5923 90.8705 31.5923H102.006Z" fill="white"/>
<path d="M118.152 31.5923V34.401H113.474V47.6597H110.648V34.401H105.971V31.5923H118.152Z" fill="white"/>
<path d="M133.585 31.5923V34.401H125.559C124.705 34.401 124.087 34.5837 123.707 34.9486C123.327 35.3139 123.138 35.8057 123.138 36.4243L123.14 38.3283H125.583H133.466V40.8756H125.512H123.066V42.8277C123.066 43.4622 123.264 43.9578 123.66 44.315C124.055 44.6721 124.664 44.8505 125.488 44.8505H133.609V47.6597H125.488C124.538 47.6597 123.727 47.5487 123.054 47.3261C122.382 47.104 121.827 46.7988 121.392 46.4099C120.957 46.021 120.64 45.5572 120.443 45.0173C120.245 44.478 120.146 43.8987 120.146 43.2795C120.146 42.3595 120.193 37.7655 120.193 35.9719C120.193 35.3375 120.296 34.75 120.502 34.2107C120.707 33.6714 121.028 33.207 121.463 32.8181C121.899 32.4297 122.453 32.1278 123.125 31.9134C123.798 31.6995 124.61 31.5923 125.559 31.5923H133.585Z" fill="white"/>
<path d="M140.043 31.5923V38.4H141.586C142.266 38.4 142.825 38.3803 143.26 38.3404C143.695 38.301 144.055 38.2096 144.34 38.0669C144.625 37.9241 144.866 37.7217 145.064 37.4597C145.262 37.1983 145.471 36.8449 145.693 36.4008L148.139 31.5923H151.154L148.637 36.5911C148.274 37.3049 147.886 37.9 147.474 38.3759C147.062 38.8523 146.524 39.233 145.86 39.5185C146.24 39.6143 146.572 39.745 146.857 39.9113C147.142 40.0781 147.407 40.2849 147.652 40.5304C147.897 40.7766 148.131 41.0703 148.353 41.4111C148.574 41.7524 148.804 42.1533 149.041 42.6133L151.629 47.6597H148.495L146.05 42.8989C145.828 42.4706 145.614 42.1293 145.409 41.8755C145.202 41.6217 144.942 41.4231 144.625 41.2804C144.308 41.1376 143.913 41.0462 143.438 41.0063C142.963 40.9669 142.346 40.9472 141.586 40.9472H140.043V47.6597H137.241V31.5923H140.043Z" fill="white"/>
<path d="M158.467 41.6848H165.4L162.789 34.7338C162.646 34.369 162.385 34.1869 162.005 34.1869C161.625 34.1869 161.356 34.369 161.198 34.7338L158.467 41.6848ZM166.397 44.3508H157.423L156.116 47.6594H153.03L158.657 33.3773C158.926 32.6154 159.341 32.0799 159.903 31.7709C160.465 31.4613 161.174 31.3065 162.029 31.3065C162.867 31.3065 163.564 31.4613 164.118 31.7709C164.672 32.0799 165.083 32.6154 165.352 33.3773L170.766 47.6594H167.656L166.397 44.3508Z" fill="white"/>
<path d="M179.907 31.5923C180.635 31.5923 181.24 31.6601 181.724 31.7947C182.206 31.9298 182.59 32.1513 182.875 32.4609C183.16 32.7705 183.358 33.1671 183.468 33.6511C183.579 34.1352 183.635 34.7265 183.635 35.4244V47.6597H180.833V35.6148C180.833 35.1865 180.746 34.8769 180.572 34.6866C180.397 34.4962 180.097 34.401 179.669 34.401H178.221V31.5923H179.907Z" fill="white"/>
<path d="M189.737 40.3043C189.547 40.5264 189.452 40.7725 189.452 41.0422C189.452 41.296 189.535 41.4907 189.702 41.6252C189.867 41.7603 190.14 41.8276 190.521 41.8276H197.524V35.1868C197.524 34.6628 197.287 34.4013 196.812 34.4013H195.554C195.189 34.4013 194.913 34.4484 194.723 34.5435C194.533 34.6393 194.327 34.8214 194.106 35.0911L189.737 40.3043ZM191.945 33.4009C192.198 33.1001 192.443 32.8381 192.681 32.6155C192.919 32.3939 193.18 32.2074 193.465 32.0564C193.749 31.906 194.07 31.7912 194.426 31.7113C194.782 31.632 195.198 31.5921 195.673 31.5921H197.454C198.498 31.5921 199.242 31.842 199.685 32.342C200.128 32.8419 200.35 33.5677 200.35 34.52V47.6595H197.524V44.3268H190.021C188.66 44.3268 187.703 44.0888 187.149 43.613C186.594 43.1365 186.317 42.4468 186.317 41.5421C186.317 40.9388 186.408 40.4471 186.591 40.0658C186.772 39.6851 187.014 39.3126 187.315 38.9472L191.945 33.4009Z" fill="white"/>
<path d="M206.238 36.7338C206.238 37.4481 206.431 37.9716 206.82 38.3047C207.207 38.6378 207.765 38.8046 208.494 38.8046H215C214.92 37.2654 214.545 36.1469 213.872 35.4484C213.199 34.7504 212.19 34.4009 210.844 34.4009H208.613C207.805 34.4009 207.207 34.6153 206.82 35.0436C206.431 35.4719 206.238 36.0358 206.238 36.7338ZM211.509 31.5922C212.443 31.5922 213.297 31.7393 214.073 32.0325C214.849 32.3262 215.514 32.7862 216.068 33.4131C216.622 34.0405 217.053 34.8456 217.362 35.8291C217.671 36.8136 217.825 37.9956 217.825 39.3762C217.825 42.1844 217.199 44.2673 215.949 45.6238C214.699 46.9808 212.91 47.6596 210.584 47.6596H205.312V44.8503H210.584C211.865 44.8503 212.863 44.5572 213.575 43.9697C214.288 43.3828 214.738 42.4147 214.929 41.0658H208.209C206.578 41.0658 205.387 40.713 204.635 40.0063C203.884 39.3007 203.508 38.2018 203.508 36.7102C203.508 35.9959 203.603 35.3258 203.793 34.6985C203.982 34.0716 204.287 33.5285 204.707 33.0679C205.126 32.6079 205.672 32.2469 206.345 31.9849C207.018 31.7229 207.845 31.5922 208.826 31.5922H211.509Z" fill="white"/>
<path d="M71.3599 53.0442C72.1368 53.0442 72.462 53.4079 72.5378 53.9122C72.5509 54.0085 72.5313 54.0528 72.4423 54.0785L72.2896 54.1234C72.1941 54.1617 72.1624 54.136 72.1434 54.0463C72.0795 53.6502 71.8498 53.4271 71.3026 53.4271C70.6719 53.4271 70.2965 53.7596 70.2005 54.2957L70.0291 55.266C69.9331 55.8026 70.2005 56.1341 70.8252 56.1341C71.3533 56.1341 71.6845 55.9109 71.8946 55.4766C71.9393 55.3874 71.9775 55.3749 72.067 55.4L72.2323 55.4575C72.3087 55.4897 72.3278 55.528 72.277 55.6172C71.9775 56.2046 71.5192 56.5109 70.7608 56.5109C69.8502 56.5109 69.4683 56.0066 69.6085 55.2212L69.7738 54.2765C69.914 53.4971 70.4236 53.0442 71.3599 53.0442Z" fill="white"/>
<path d="M77.1382 53.4144C76.5206 53.4144 76.094 53.7656 75.9854 54.353L75.9346 54.6019C76.2784 54.679 76.6417 54.7108 76.9467 54.7108C77.5136 54.7108 77.871 54.5193 77.9665 54.1299C78.081 53.6633 77.7624 53.4144 77.1382 53.4144ZM77.2021 53.0441C78.0614 53.0441 78.5393 53.4784 78.38 54.1802C78.2529 54.7742 77.7308 55.0488 76.8834 55.0488C76.5714 55.0488 76.1894 55.0105 75.8768 54.9471L75.8201 55.2659C75.724 55.8211 75.9914 56.1406 76.6226 56.1406C77.1448 56.1406 77.4694 55.9431 77.7051 55.6362C77.7749 55.5597 77.8197 55.5405 77.8961 55.5914L78.0172 55.6685C78.087 55.7128 78.087 55.7708 78.0232 55.8534C77.7308 56.2428 77.291 56.5109 76.5588 56.5109C75.6035 56.5109 75.2723 55.9491 75.4125 55.1768L75.5653 54.3465C75.7115 53.5167 76.304 53.0441 77.2021 53.0441Z" fill="white"/>
<path d="M85.0058 53.0442C85.8144 53.0442 86.0948 53.5037 85.9546 54.2892L85.6049 56.3069C85.5852 56.3961 85.5536 56.4218 85.4647 56.4218H85.2672C85.1777 56.4218 85.1586 56.3961 85.1717 56.3069L85.5345 54.2766C85.6305 53.7083 85.4325 53.4402 84.8847 53.4402C84.458 53.4402 84.1209 53.5934 83.9806 53.6568C84.0379 53.8166 84.0439 54.0146 83.9997 54.2574L83.6429 56.3069C83.6244 56.3961 83.5922 56.4218 83.5027 56.4218H83.3057C83.2168 56.4218 83.1977 56.3961 83.2168 56.3069L83.5731 54.2766C83.6751 53.6891 83.4459 53.4402 82.9042 53.4402C82.6243 53.4402 82.4202 53.4851 82.2167 53.5677C82.1147 53.6125 82.0956 53.67 82.0765 53.74L81.6302 56.3069C81.6111 56.3961 81.58 56.4218 81.4965 56.4218H81.293C81.2101 56.4218 81.1844 56.3961 81.2035 56.3069L81.6755 53.6125C81.7137 53.4145 81.7769 53.3314 81.981 53.2483C82.2227 53.1465 82.5539 53.0442 83.0253 53.0442C83.3947 53.0442 83.6555 53.14 83.8088 53.3254C83.955 53.2608 84.3882 53.0442 85.0058 53.0442Z" fill="white"/>
<path d="M90.2891 56.1279C90.9073 56.1279 91.251 55.8598 91.3531 55.2975C91.442 54.7741 91.1812 54.4935 90.6078 54.4935C90.2575 54.4935 89.952 54.5701 89.665 54.6724L89.4555 55.8341C89.4424 55.9364 89.4489 55.9556 89.5504 56.0064C89.7228 56.071 89.9585 56.1279 90.2891 56.1279ZM90.6972 54.1232C91.5124 54.1232 91.9074 54.5701 91.7737 55.3298C91.6335 56.1344 91.1299 56.5107 90.2771 56.5107C89.7605 56.5107 89.4233 56.4281 89.1941 56.3324C89.0032 56.2493 88.9644 56.1793 89.0032 55.9747L89.4866 53.2546C89.5057 53.1654 89.5379 53.1397 89.6268 53.1397H89.8117C89.9007 53.1397 89.9263 53.1654 89.9072 53.2546L89.7294 54.2955C90.0343 54.1932 90.3464 54.1232 90.6972 54.1232Z" fill="white"/>
<path d="M100.649 53.0442C101.426 53.0442 101.751 53.4079 101.827 53.9122C101.84 54.0085 101.821 54.0528 101.732 54.0785L101.579 54.1234C101.483 54.1617 101.452 54.136 101.433 54.0463C101.368 53.6502 101.139 53.4271 100.592 53.4271C99.9612 53.4271 99.5858 53.7596 99.4898 54.2957L99.3185 55.266C99.2224 55.8026 99.4898 56.1341 100.114 56.1341C100.643 56.1341 100.974 55.9109 101.184 55.4766C101.229 55.3874 101.267 55.3749 101.356 55.4L101.522 55.4575C101.598 55.4897 101.617 55.528 101.566 55.6172C101.267 56.2046 100.808 56.5109 100.05 56.5109C99.1395 56.5109 98.7576 56.0066 98.8978 55.2212L99.0631 54.2765C99.2033 53.4971 99.7129 53.0442 100.649 53.0442Z" fill="white"/>
<path d="M106.428 53.4336C105.835 53.4336 105.408 53.7273 105.319 54.219L105.122 55.3425C105.032 55.8277 105.364 56.1214 105.95 56.1214C106.555 56.1214 106.975 55.8277 107.064 55.3425L107.262 54.219C107.351 53.7273 107.027 53.4336 106.428 53.4336ZM106.485 53.0441C107.364 53.0441 107.816 53.5101 107.689 54.2382L107.491 55.3617C107.364 56.0891 106.778 56.5109 105.899 56.5109C105.032 56.5109 104.568 56.058 104.695 55.3299L104.893 54.2059C105.02 53.4784 105.619 53.0441 106.485 53.0441Z" fill="white"/>
<path d="M111.544 53.2546L111.194 55.2533C111.099 55.8276 111.321 56.1214 111.933 56.1214C112.378 56.1214 112.633 56.0196 112.907 55.9616L113.385 53.2546C113.397 53.1655 113.436 53.1398 113.519 53.1398H113.716C113.799 53.1398 113.831 53.1655 113.812 53.2546L113.34 55.943C113.697 55.9047 113.862 56.077 113.786 56.5042L113.671 57.194C113.652 57.2837 113.627 57.3088 113.544 57.3088H113.359C113.27 57.3088 113.238 57.2837 113.258 57.194L113.372 56.5557C113.397 56.3959 113.34 56.2685 113.111 56.3068C112.767 56.3702 112.417 56.5108 111.818 56.5108C110.946 56.5108 110.633 56.0196 110.774 55.2342L111.118 53.2546C111.136 53.1655 111.169 53.1398 111.258 53.1398H111.455C111.538 53.1398 111.563 53.1655 111.544 53.2546Z" fill="white"/>
<path d="M120.017 53.2547L119.546 55.9491C119.507 56.1471 119.451 56.2171 119.24 56.3003C118.979 56.4026 118.597 56.5109 118.017 56.5109C117.145 56.5109 116.839 56.0197 116.98 55.2342L117.323 53.2547C117.342 53.1656 117.374 53.1399 117.463 53.1399H117.661C117.743 53.1399 117.769 53.1656 117.75 53.2547L117.4 55.2474C117.304 55.8211 117.521 56.1214 118.138 56.1214C118.502 56.1214 118.788 56.058 118.998 55.9808C119.1 55.9365 119.132 55.8857 119.144 55.8025L119.591 53.2547C119.603 53.1656 119.642 53.1399 119.724 53.1399H119.921C120.005 53.1399 120.037 53.1656 120.017 53.2547Z" fill="white"/>
<path d="M124.643 53.44C123.981 53.44 123.637 53.6823 123.522 54.3146L123.363 55.2024C123.261 55.7641 123.484 56.1213 124.083 56.1213C124.516 56.1213 124.872 56.0321 125.064 55.9681L125.458 53.7337C125.472 53.6315 125.458 53.6063 125.357 53.5615C125.191 53.4969 124.962 53.44 124.643 53.44ZM124.682 53.044C125.159 53.044 125.522 53.1397 125.726 53.2355C125.917 53.3252 125.949 53.376 125.911 53.5872L125.458 56.1727C125.439 56.2619 125.395 56.2941 125.299 56.3259C124.981 56.415 124.561 56.5107 123.988 56.5107C123.115 56.5107 122.803 55.9556 122.943 55.1701L123.102 54.2572C123.248 53.4078 123.752 53.044 124.682 53.044Z" fill="white"/>
<path d="M131.919 53.2547L131.39 56.3068C131.371 56.396 131.333 56.4217 131.25 56.4217H131.053C130.964 56.4217 130.944 56.396 130.957 56.3068L131.441 53.5418H130.111L129.861 54.5953C129.479 56.2171 129.111 56.2942 128.614 56.5043C128.543 56.53 128.505 56.5108 128.486 56.4474L128.423 56.2494C128.404 56.1854 128.416 56.1602 128.48 56.1279C128.748 56.0005 129.111 56.0005 129.448 54.5576L129.753 53.2547C129.779 53.1655 129.811 53.1398 129.894 53.1398H131.83C131.912 53.1398 131.938 53.1655 131.919 53.2547Z" fill="white"/>
<path d="M136.099 56.1279C136.718 56.1279 137.061 55.8598 137.163 55.2975C137.252 54.7741 136.991 54.4935 136.418 54.4935C136.068 54.4935 135.762 54.5701 135.475 54.6724L135.266 55.8341C135.253 55.9364 135.259 55.9556 135.361 56.0064C135.533 56.071 135.769 56.1279 136.099 56.1279ZM136.508 54.1232C137.323 54.1232 137.718 54.5701 137.584 55.3298C137.444 56.1344 136.94 56.5107 136.087 56.5107C135.571 56.5107 135.234 56.4281 135.004 56.3324C134.813 56.2493 134.775 56.1793 134.813 55.9747L135.297 53.2546C135.316 53.1654 135.348 53.1397 135.437 53.1397H135.622C135.711 53.1397 135.737 53.1654 135.717 53.2546L135.54 54.2955C135.845 54.1932 136.157 54.1232 136.508 54.1232Z" fill="white"/>
<path d="M143.795 53.2547L143.267 56.3068C143.248 56.396 143.216 56.4217 143.127 56.4217H142.93C142.84 56.4217 142.822 56.396 142.834 56.3068L143.076 54.9339H141.229L140.993 56.3068C140.974 56.396 140.942 56.4217 140.853 56.4217H140.656C140.573 56.4217 140.547 56.396 140.56 56.3068L141.095 53.2547C141.114 53.1655 141.147 53.1398 141.235 53.1398H141.433C141.515 53.1398 141.541 53.1655 141.522 53.2547L141.299 54.5385H143.146L143.369 53.2547C143.388 53.1655 143.42 53.1398 143.51 53.1398H143.706C143.789 53.1398 143.815 53.1655 143.795 53.2547Z" fill="white"/>
<path d="M150.759 53.2547L150.224 56.3068C150.205 56.396 150.173 56.4217 150.09 56.4217H149.886C149.804 56.4217 149.778 56.396 149.797 56.3068L150.332 53.2547C150.345 53.1656 150.384 53.1399 150.466 53.1399H150.664C150.753 53.1399 150.778 53.1656 150.759 53.2547ZM147.976 56.128C148.594 56.128 148.937 55.86 149.04 55.2977C149.129 54.7742 148.868 54.4936 148.294 54.4936C147.944 54.4936 147.638 54.5702 147.352 54.6725L147.142 55.8343C147.129 55.9365 147.135 55.9551 147.237 56.0066C147.409 56.0705 147.645 56.128 147.976 56.128ZM148.384 54.1233C149.199 54.1233 149.594 54.5702 149.46 55.3299C149.32 56.1345 148.816 56.5109 147.964 56.5109C147.447 56.5109 147.11 56.4283 146.881 56.3326C146.69 56.2494 146.651 56.1794 146.69 55.9748L147.173 53.2547C147.193 53.1656 147.224 53.1399 147.314 53.1399H147.498C147.588 53.1399 147.613 53.1656 147.594 53.2547L147.416 54.2956C147.721 54.1933 148.033 54.1233 148.384 54.1233Z" fill="white"/>
<path d="M156.628 53.2675L155.271 54.7361L156.163 56.2939C156.207 56.377 156.175 56.4219 156.054 56.4219H155.895C155.774 56.4219 155.755 56.4087 155.71 56.3262L154.978 55.0424L153.813 56.3262C153.743 56.4087 153.705 56.4219 153.59 56.4219H153.38C153.252 56.4219 153.246 56.377 153.322 56.2939L154.749 54.7361L153.902 53.2675C153.87 53.1909 153.889 53.14 154.016 53.14H154.169C154.29 53.14 154.316 53.1526 154.354 53.2352L155.048 54.4232L156.144 53.2352C156.22 53.1526 156.239 53.14 156.36 53.14H156.576C156.691 53.14 156.705 53.1849 156.628 53.2675Z" fill="white"/>
<path d="M165.109 53.44C164.447 53.44 164.102 53.6823 163.988 54.3146L163.829 55.2024C163.727 55.7641 163.95 56.1213 164.549 56.1213C164.982 56.1213 165.338 56.0321 165.53 55.9681L165.924 53.7337C165.937 53.6315 165.924 53.6063 165.823 53.5615C165.657 53.4969 165.428 53.44 165.109 53.44ZM165.147 53.044C165.625 53.044 165.988 53.1397 166.191 53.2355C166.383 53.3252 166.415 53.376 166.376 53.5872L165.924 56.1727C165.905 56.2619 165.861 56.2941 165.765 56.3259C165.447 56.415 165.027 56.5107 164.453 56.5107C163.58 56.5107 163.269 55.9556 163.409 55.1701L163.568 54.2572C163.714 53.4078 164.217 53.044 165.147 53.044Z" fill="white"/>
<path d="M171.238 53.0442C172.111 53.0442 172.423 53.542 172.283 54.3274L171.939 56.3069C171.92 56.3961 171.882 56.4218 171.799 56.4218H171.601C171.512 56.4218 171.493 56.3961 171.506 56.3069L171.856 54.3088C171.958 53.734 171.735 53.4402 171.117 53.4402C170.754 53.4402 170.454 53.5103 170.251 53.5803C170.156 53.6191 170.136 53.67 170.117 53.74L169.672 56.3069C169.652 56.3961 169.621 56.4218 169.538 56.4218H169.334C169.251 56.4218 169.226 56.3961 169.245 56.3069L169.716 53.6125C169.754 53.4145 169.812 53.3445 170.022 53.2608C170.283 53.1591 170.665 53.0442 171.238 53.0442Z" fill="white"/>
<path d="M179.08 53.0442C179.889 53.0442 180.169 53.5037 180.029 54.2892L179.679 56.3069C179.66 56.3961 179.628 56.4218 179.539 56.4218H179.342C179.252 56.4218 179.233 56.3961 179.246 56.3069L179.609 54.2766C179.705 53.7083 179.507 53.4402 178.959 53.4402C178.533 53.4402 178.195 53.5934 178.055 53.6568C178.112 53.8166 178.118 54.0146 178.074 54.2574L177.717 56.3069C177.699 56.3961 177.667 56.4218 177.577 56.4218H177.38C177.291 56.4218 177.272 56.3961 177.291 56.3069L177.648 54.2766C177.75 53.6891 177.52 53.4402 176.979 53.4402C176.699 53.4402 176.495 53.4851 176.291 53.5677C176.189 53.6125 176.17 53.67 176.151 53.74L175.705 56.3069C175.686 56.3961 175.655 56.4218 175.571 56.4218H175.368C175.285 56.4218 175.259 56.3961 175.278 56.3069L175.75 53.6125C175.788 53.4145 175.851 53.3314 176.056 53.2483C176.297 53.1465 176.628 53.0442 177.1 53.0442C177.469 53.0442 177.73 53.14 177.883 53.3254C178.03 53.2608 178.463 53.0442 179.08 53.0442Z" fill="white"/>
<path d="M184.842 53.4144C184.224 53.4144 183.797 53.7656 183.689 54.353L183.638 54.6019C183.982 54.679 184.345 54.7108 184.65 54.7108C185.217 54.7108 185.574 54.5193 185.67 54.1299C185.784 53.6633 185.466 53.4144 184.842 53.4144ZM184.906 53.0441C185.765 53.0441 186.243 53.4784 186.083 54.1802C185.956 54.7742 185.434 55.0488 184.587 55.0488C184.275 55.0488 183.893 55.0105 183.58 54.9471L183.524 55.2659C183.427 55.8211 183.695 56.1406 184.326 56.1406C184.848 56.1406 185.173 55.9431 185.409 55.6362C185.478 55.5597 185.523 55.5405 185.6 55.5914L185.721 55.6685C185.79 55.7128 185.79 55.7708 185.727 55.8534C185.434 56.2428 184.994 56.5109 184.262 56.5109C183.307 56.5109 182.976 55.9491 183.116 55.1768L183.269 54.3465C183.415 53.5167 184.007 53.0441 184.906 53.0441Z" fill="white"/>
<path d="M191.544 56.4217H191.359C191.232 56.4217 191.213 56.4025 191.188 56.3194L190.875 55.3234C190.792 55.0553 190.646 54.9339 190.321 54.9339H189.589L189.353 56.3003C189.334 56.396 189.302 56.4217 189.207 56.4217H189.022C188.926 56.4217 188.907 56.396 188.92 56.3003L189.455 53.2547C189.474 53.1655 189.506 53.1398 189.601 53.1398H189.786C189.875 53.1398 189.901 53.1655 189.882 53.2547L189.659 54.5385H190.334H190.397L191.652 53.229C191.735 53.1398 191.767 53.1398 191.894 53.1398H192.073C192.193 53.1398 192.193 53.2038 192.104 53.287L190.792 54.6468C191.041 54.7042 191.169 54.8634 191.264 55.1379L191.639 56.2877C191.671 56.3834 191.652 56.4217 191.544 56.4217Z" fill="white"/>
</svg>
